<svg width="1134" height="601" viewBox="0 0 1134 601" fill="none" xmlns="http://www.w3.org/2000/svg">
<g clip-path="url(#clip0)">
<rect width="1134" height="601" fill="white"/>
<g filter="url(#filter0_i)">
<path d="M597.051 91.9587C376.518 102.304 342 0 342 0H1134V257.484C1134 206.219 1103.32 145.984 959.492 178.17C815.666 210.355 817.584 81.6133 597.051 91.9587Z" fill="url(#paint0_linear)"/>
</g>
<path d="M597.051 91.9587C376.518 102.304 342 0 342 0H1134V257.484C1134 206.219 1103.32 145.984 959.492 178.17C815.666 210.355 817.584 81.6133 597.051 91.9587Z" stroke="url(#paint1_linear)"/>
<line x1="86" y1="116.5" x2="171" y2="116.5" stroke="url(#paint2_linear)" stroke-opacity="0.8" stroke-width="3"/>
<path d="M112.309 74.5508L107.609 92H102.629L99.5 80.6328L96.4531 92H91.4727L86.7734 74.5508H91.4727L94.1562 86.5625L97.3672 74.5508H101.855L104.914 86.5625L107.727 74.5508H112.309ZM128.047 86.1992H118.391C118.453 87.2305 118.844 88.0195 119.562 88.5664C120.289 89.1133 121.355 89.3867 122.762 89.3867C123.652 89.3867 124.516 89.2266 125.352 88.9062C126.188 88.5859 126.848 88.2422 127.332 87.875H127.801V91.2617C126.848 91.6445 125.949 91.9219 125.105 92.0938C124.262 92.2656 123.328 92.3516 122.305 92.3516C119.664 92.3516 117.641 91.7578 116.234 90.5703C114.828 89.3828 114.125 87.6914 114.125 85.4961C114.125 83.3242 114.789 81.6055 116.117 80.3398C117.453 79.0664 119.281 78.4297 121.602 78.4297C123.742 78.4297 125.352 78.9727 126.43 80.0586C127.508 81.1367 128.047 82.6914 128.047 84.7227V86.1992ZM123.852 83.7266C123.828 82.8438 123.609 82.1797 123.195 81.7344C122.781 81.2891 122.137 81.0664 121.262 81.0664C120.449 81.0664 119.781 81.2773 119.258 81.6992C118.734 82.1211 118.441 82.7969 118.379 83.7266H123.852ZM135.242 92H131.023V73.7656H135.242V92ZM146.082 92.3516C144.934 92.3516 143.883 92.2148 142.93 91.9414C141.984 91.668 141.16 91.2461 140.457 90.6758C139.762 90.1055 139.223 89.3867 138.84 88.5195C138.457 87.6523 138.266 86.6367 138.266 85.4727C138.266 84.2461 138.469 83.1875 138.875 82.2969C139.289 81.4062 139.863 80.668 140.598 80.082C141.309 79.5273 142.129 79.1211 143.059 78.8633C143.988 78.6055 144.953 78.4766 145.953 78.4766C146.852 78.4766 147.68 78.5742 148.438 78.7695C149.195 78.9648 149.902 79.2188 150.559 79.5312V83.1289H149.961C149.797 82.9883 149.598 82.8242 149.363 82.6367C149.137 82.4492 148.855 82.2656 148.52 82.0859C148.199 81.9141 147.848 81.7734 147.465 81.6641C147.082 81.5469 146.637 81.4883 146.129 81.4883C145.004 81.4883 144.137 81.8477 143.527 82.5664C142.926 83.2773 142.625 84.2461 142.625 85.4727C142.625 86.7383 142.934 87.6992 143.551 88.3555C144.176 89.0117 145.059 89.3398 146.199 89.3398C146.73 89.3398 147.207 89.2812 147.629 89.1641C148.059 89.0391 148.414 88.8945 148.695 88.7305C148.961 88.5742 149.195 88.4102 149.398 88.2383C149.602 88.0664 149.789 87.8984 149.961 87.7344H150.559V91.332C149.895 91.6445 149.199 91.8906 148.473 92.0703C147.754 92.2578 146.957 92.3516 146.082 92.3516ZM166.812 85.4258C166.812 87.5898 166.18 89.2969 164.914 90.5469C163.656 91.7891 161.887 92.4102 159.605 92.4102C157.324 92.4102 155.551 91.7891 154.285 90.5469C153.027 89.2969 152.398 87.5898 152.398 85.4258C152.398 83.2461 153.031 81.5352 154.297 80.293C155.57 79.0508 157.34 78.4297 159.605 78.4297C161.902 78.4297 163.676 79.0547 164.926 80.3047C166.184 81.5547 166.812 83.2617 166.812 85.4258ZM161.621 88.625C161.895 88.2891 162.098 87.8867 162.23 87.418C162.371 86.9414 162.441 86.2852 162.441 85.4492C162.441 84.6758 162.371 84.0273 162.23 83.5039C162.09 82.9805 161.895 82.5625 161.645 82.25C161.395 81.9297 161.094 81.7031 160.742 81.5703C160.391 81.4375 160.012 81.3711 159.605 81.3711C159.199 81.3711 158.836 81.4258 158.516 81.5352C158.203 81.6445 157.902 81.8633 157.613 82.1914C157.355 82.4961 157.148 82.9141 156.992 83.4453C156.844 83.9766 156.77 84.6445 156.77 85.4492C156.77 86.168 156.836 86.793 156.969 87.3242C157.102 87.8477 157.297 88.2695 157.555 88.5898C157.805 88.8945 158.102 89.1172 158.445 89.2578C158.797 89.3984 159.195 89.4688 159.641 89.4688C160.023 89.4688 160.387 89.4062 160.73 89.2812C161.082 89.1484 161.379 88.9297 161.621 88.625ZM182.703 82.6719V92H178.461V85.4258C178.461 84.7852 178.445 84.2422 178.414 83.7969C178.383 83.3438 178.297 82.9766 178.156 82.6953C178.016 82.4141 177.801 82.2109 177.512 82.0859C177.23 81.9531 176.832 81.8867 176.316 81.8867C175.902 81.8867 175.5 81.9727 175.109 82.1445C174.719 82.3086 174.367 82.4844 174.055 82.6719V92H169.836V78.8398H174.055V80.293C174.781 79.7227 175.477 79.2773 176.141 78.957C176.805 78.6367 177.539 78.4766 178.344 78.4766C179.211 78.4766 179.977 78.6719 180.641 79.0625C181.305 79.4453 181.824 80.0117 182.199 80.7617C183.043 80.0508 183.863 79.4922 184.66 79.0859C185.457 78.6797 186.238 78.4766 187.004 78.4766C188.426 78.4766 189.504 78.9023 190.238 79.7539C190.98 80.6055 191.352 81.832 191.352 83.4336V92H187.109V85.4258C187.109 84.7773 187.094 84.2305 187.062 83.7852C187.039 83.3398 186.957 82.9766 186.816 82.6953C186.684 82.4141 186.473 82.2109 186.184 82.0859C185.895 81.9531 185.488 81.8867 184.965 81.8867C184.613 81.8867 184.27 81.9492 183.934 82.0742C183.598 82.1914 183.188 82.3906 182.703 82.6719ZM208.203 86.1992H198.547C198.609 87.2305 199 88.0195 199.719 88.5664C200.445 89.1133 201.512 89.3867 202.918 89.3867C203.809 89.3867 204.672 89.2266 205.508 88.9062C206.344 88.5859 207.004 88.2422 207.488 87.875H207.957V91.2617C207.004 91.6445 206.105 91.9219 205.262 92.0938C204.418 92.2656 203.484 92.3516 202.461 92.3516C199.82 92.3516 197.797 91.7578 196.391 90.5703C194.984 89.3828 194.281 87.6914 194.281 85.4961C194.281 83.3242 194.945 81.6055 196.273 80.3398C197.609 79.0664 199.438 78.4297 201.758 78.4297C203.898 78.4297 205.508 78.9727 206.586 80.0586C207.664 81.1367 208.203 82.6914 208.203 84.7227V86.1992ZM204.008 83.7266C203.984 82.8438 203.766 82.1797 203.352 81.7344C202.938 81.2891 202.293 81.0664 201.418 81.0664C200.605 81.0664 199.938 81.2773 199.414 81.6992C198.891 82.1211 198.598 82.7969 198.535 83.7266H204.008ZM235.742 92H231.09L229.883 88.4727H223.414L222.207 92H217.672L224.117 74.5508H229.297L235.742 92ZM228.793 85.2734L226.648 79.0156L224.504 85.2734H228.793ZM250.812 92H246.594V90.6289C245.867 91.2227 245.188 91.6602 244.555 91.9414C243.922 92.2227 243.191 92.3633 242.363 92.3633C240.762 92.3633 239.48 91.7461 238.52 90.5117C237.559 89.2773 237.078 87.6133 237.078 85.5195C237.078 84.4023 237.238 83.4141 237.559 82.5547C237.887 81.6875 238.332 80.9453 238.895 80.3281C239.426 79.7422 240.07 79.2891 240.828 78.9688C241.586 78.6406 242.344 78.4766 243.102 78.4766C243.891 78.4766 244.535 78.5625 245.035 78.7344C245.543 78.8984 246.062 79.1094 246.594 79.3672V73.7656H250.812V92ZM246.594 88.3672V81.9102C246.297 81.7852 245.984 81.6953 245.656 81.6406C245.328 81.5859 245.027 81.5586 244.754 81.5586C243.645 81.5586 242.812 81.9062 242.258 82.6016C241.703 83.2891 241.426 84.2461 241.426 85.4727C241.426 86.7617 241.648 87.6992 242.094 88.2852C242.539 88.8633 243.254 89.1523 244.238 89.1523C244.621 89.1523 245.027 89.082 245.457 88.9414C245.887 88.793 246.266 88.6016 246.594 88.3672ZM267.664 82.6719V92H263.422V85.4258C263.422 84.7852 263.406 84.2422 263.375 83.7969C263.344 83.3438 263.258 82.9766 263.117 82.6953C262.977 82.4141 262.762 82.2109 262.473 82.0859C262.191 81.9531 261.793 81.8867 261.277 81.8867C260.863 81.8867 260.461 81.9727 260.07 82.1445C259.68 82.3086 259.328 82.4844 259.016 82.6719V92H254.797V78.8398H259.016V80.293C259.742 79.7227 260.438 79.2773 261.102 78.957C261.766 78.6367 262.5 78.4766 263.305 78.4766C264.172 78.4766 264.938 78.6719 265.602 79.0625C266.266 79.4453 266.785 80.0117 267.16 80.7617C268.004 80.0508 268.824 79.4922 269.621 79.0859C270.418 78.6797 271.199 78.4766 271.965 78.4766C273.387 78.4766 274.465 78.9023 275.199 79.7539C275.941 80.6055 276.312 81.832 276.312 83.4336V92H272.07V85.4258C272.07 84.7773 272.055 84.2305 272.023 83.7852C272 83.3398 271.918 82.9766 271.777 82.6953C271.645 82.4141 271.434 82.2109 271.145 82.0859C270.855 81.9531 270.449 81.8867 269.926 81.8867C269.574 81.8867 269.23 81.9492 268.895 82.0742C268.559 82.1914 268.148 82.3906 267.664 82.6719ZM284.422 92H280.203V78.8398H284.422V92ZM284.539 76.9648H280.086V73.7656H284.539V76.9648ZM301.625 92H297.383V85.4727C297.383 84.9414 297.355 84.4141 297.301 83.8906C297.246 83.3594 297.152 82.9688 297.02 82.7188C296.863 82.4297 296.633 82.2188 296.328 82.0859C296.031 81.9531 295.613 81.8867 295.074 81.8867C294.691 81.8867 294.301 81.9492 293.902 82.0742C293.512 82.1992 293.086 82.3984 292.625 82.6719V92H288.406V78.8398H292.625V80.293C293.375 79.707 294.094 79.2578 294.781 78.9453C295.477 78.6328 296.246 78.4766 297.09 78.4766C298.512 78.4766 299.621 78.8906 300.418 79.7188C301.223 80.5469 301.625 81.7852 301.625 83.4336V92Z" fill="url(#paint3_linear)"/>
</g>
<defs>
<filter id="filter0_i" x="341.304" y="-5.5" width="798.196" height="262.984" filterUnits="userSpaceOnUse" color-interpolation-filters="sRGB">
<feFlood flood-opacity="0" result="BackgroundImageFix"/>
<feBlend mode="normal" in="SourceGraphic" in2="BackgroundImageFix" result="shape"/>
<feColorMatrix in="SourceAlpha" type="matrix" values="0 0 0 0 0 0 0 0 0 0 0 0 0 0 0 0 0 0 127 0" result="hardAlpha"/>
<feOffset dx="5" dy="-5"/>
<feGaussianBlur stdDeviation="5"/>
<feComposite in2="hardAlpha" operator="arithmetic" k2="-1" k3="1"/>
<feColorMatrix type="matrix" values="0 0 0 0 0 0 0 0 0 0 0 0 0 0 0 0 0 0 0.15 0"/>
<feBlend mode="normal" in2="shape" result="effect1_innerShadow"/>
</filter>
<linearGradient id="paint0_linear" x1="779.23" y1="-1.1934e-08" x2="779.23" y2="257.484" gradientUnits="userSpaceOnUse">
<stop stop-color="#DC9076"/>
<stop offset="1" stop-color="#EDC589"/>
</linearGradient>
<linearGradient id="paint1_linear" x1="779.23" y1="-1.1934e-08" x2="779.23" y2="257.484" gradientUnits="userSpaceOnUse">
<stop stop-color="#DA8C75"/>
<stop offset="1" stop-color="#EDC589"/>
</linearGradient>
<linearGradient id="paint2_linear" x1="128.5" y1="118" x2="128.5" y2="119" gradientUnits="userSpaceOnUse">
<stop stop-color="#DC9177"/>
<stop offset="0.58011" stop-color="#EDC589"/>
</linearGradient>
<linearGradient id="paint3_linear" x1="195" y1="68" x2="195" y2="98" gradientUnits="userSpaceOnUse">
<stop stop-color="#DA8C75"/>
</linearGradient>
<clipPath id="clip0">
<rect width="1134" height="601" fill="white"/>
</clipPath>
</defs>
</svg>
