<svg width="116" height="116" viewBox="0 0 116 116" fill="none" xmlns="http://www.w3.org/2000/svg">
<path d="M116 58C116 90.0324 90.0324 116 58 116C25.9675 116 0 90.0324 0 58C0 25.9675 25.9675 0 58 0C90.0324 0 116 25.9675 116 58Z" fill="#E7B081"/>
<path d="M103.41 6.96636V34.9875C103.41 43.0594 98.926 50.0524 92.3745 53.4913V104.632C86.9347 108.902 80.7198 112.177 73.9813 114.201V53.4913C67.4331 50.0524 62.9453 43.0594 62.9453 34.9875V6.96636C62.9453 6.09703 63.6321 5.39528 64.4786 5.39528C69.0515 5.39528 72.7573 9.20079 72.7573 13.8931V30.8922C72.7573 32.4598 73.9915 33.7271 75.5146 33.7271C77.0377 33.7271 78.2753 32.4598 78.2753 30.8922V13.4986C78.2753 10.4158 79.8222 7.54941 82.3653 5.91548C82.8651 5.59428 83.4941 5.59428 83.9904 5.91548C86.5369 7.54941 88.0839 10.4158 88.0839 13.4986V30.8922C88.0839 32.4598 89.318 33.7271 90.8446 33.7271C92.3677 33.7271 93.6018 32.4598 93.6018 30.8922V13.8931C93.6018 9.20079 97.3077 5.39528 101.88 5.39528C102.727 5.39178 103.41 6.09703 103.41 6.96636V6.96636Z" fill="#E1EBF0"/>
<path d="M84.5269 53.6885V110.184C81.3783 111.823 78.0646 113.175 74.6133 114.201V53.2998C67.9859 49.85 63.4437 42.8349 63.4437 34.7376V6.62802C63.4437 5.75595 64.1388 5.05198 64.9956 5.05198C69.4517 5.05198 73.0923 8.58932 73.3539 13.0548V27.789C73.3539 27.789 73.3607 29.6032 73.3711 29.8799C73.3711 29.8799 73.4158 31.1897 73.4915 31.4524C74.0937 36.7969 76.6848 41.525 80.494 44.8557C83.03 47.0762 84.5269 50.2843 84.5269 53.6885V53.6885ZM50.8014 15.8881C48.7678 7.60517 41.4556 1.79834 33.0698 1.79834C24.6806 1.79834 17.3684 7.60517 15.3348 15.8881L13.2014 24.5704C12.7953 26.2234 12.5889 27.9221 12.5889 29.6277V34.6395C12.5889 42.7368 17.131 49.752 23.7584 53.2017V104.602C29.2641 108.885 35.5577 112.17 42.3743 114.201V53.2017C49.0052 49.752 53.5473 42.7368 53.5473 34.6395V29.6242C53.5473 27.9221 53.3409 26.2234 52.9348 24.5704L50.8014 15.8881Z" fill="#D2D7DA"/>
<path d="M53.0547 29.6277V34.6395C53.0547 36.4677 52.8233 38.2364 52.3945 39.9245C49.0324 43.5143 44.6188 45.6928 39.7833 45.6928C29.2342 45.6928 20.6826 35.3364 20.6826 22.56C20.6826 13.4996 24.9873 5.66139 31.2521 1.86488C31.7626 1.81935 32.2798 1.79834 32.8039 1.79834C41.0968 1.79834 48.328 7.60517 50.3426 15.8881L52.449 24.5704C52.8505 26.2234 53.0547 27.9221 53.0547 29.6277ZM37.7381 62.8856C35.3595 62.8856 33.4334 64.8679 33.4334 67.3125V110.829C36.1762 112.188 39.0448 113.308 42.0088 114.201V66.7802C41.7502 64.5877 39.9398 62.8856 37.7381 62.8856Z" fill="#E1EBF0"/>
</svg>
