<svg width="114" height="114" viewBox="0 0 114 114" fill="none" xmlns="http://www.w3.org/2000/svg">
<path d="M2.42226 72.96C0.848877 67.7799 0 62.288 0 56.5993C0 25.34 25.5194 0 57 0C88.4806 0 114 25.34 114 56.5993C114 62.288 113.151 67.7799 111.578 72.96H2.42226Z" fill="#F3ECDF"/>
<path d="M112.176 71.136C105.852 95.7859 83.5463 114 57.0002 114C30.4541 114 8.14845 95.7859 1.82422 71.136H112.176Z" fill="#EDC589"/>
<path d="M73.8719 93.48V100.32H40.1279V93.48C43.8508 89.0688 45.8999 83.4266 45.8999 77.5886V77.52H68.0999V77.5886C68.0999 83.4266 70.1491 89.0688 73.8719 93.48Z" fill="#9BB9C3"/>
<path d="M80.9442 95.8559V98.0879C80.9442 99.3207 79.933 100.32 78.6853 100.32H35.3147C34.067 100.32 33.0558 99.3207 33.0558 98.0879V95.8559C33.0558 94.6231 34.067 93.6239 35.3147 93.6239H78.6853C79.933 93.6239 80.9442 94.6231 80.9442 95.8559ZM103.533 15.5039H10.4669C9.21921 15.5039 8.20801 16.5031 8.20801 17.7359V80.2319C8.20801 81.4647 9.21921 82.4639 10.4669 82.4639H103.533C104.781 82.4639 105.792 81.4647 105.792 80.2319V17.7359C105.792 16.5031 104.781 15.5039 103.533 15.5039Z" fill="#87A0AF"/>
<path d="M103.534 82.0799H15.0254C13.7783 82.0799 12.7676 81.0865 12.7676 79.8607V17.7231C12.7676 16.4973 13.7783 15.5039 15.0254 15.5039H103.534C104.781 15.5039 105.792 16.4973 105.792 17.7231V79.8607C105.792 81.0865 104.781 82.0799 103.534 82.0799Z" fill="#9BB9C3"/>
<path d="M97.3804 77.52H16.6194C16.0033 77.52 15.5039 77.0301 15.5039 76.4256V23.8944C15.5039 23.29 16.0033 22.8 16.6194 22.8H97.3804C97.9965 22.8 98.4959 23.29 98.4959 23.8944V76.4256C98.4959 77.0301 97.9965 77.52 97.3804 77.52Z" fill="#00808A"/>
<path d="M97.3325 78.4319H16.6673C16.0247 78.4319 15.5039 77.9257 15.5039 77.3011V23.0188C15.5039 22.3942 16.0247 21.8879 16.6673 21.8879H97.3325C97.9751 21.8879 98.4959 22.3942 98.4959 23.0188V77.3011C98.4959 77.9257 97.9751 78.4319 97.3325 78.4319Z" fill="white"/>
<path d="M66.0931 52.4401C66.0931 54.5267 64.3634 56.2186 62.2302 56.2186C60.0979 56.2186 58.3682 54.5267 58.3682 52.4401C58.3682 50.3535 60.0979 48.6615 62.2302 48.6615C64.3634 48.6615 66.0931 50.3535 66.0931 52.4401V52.4401ZM62.2302 58.107C60.0979 58.107 58.3682 59.7989 58.3682 61.8855C58.3682 63.9721 60.0979 65.6641 62.2302 65.6641C64.3634 65.6641 66.0931 63.9721 66.0931 61.8855C66.0931 59.7989 64.3634 58.107 62.2302 58.107V58.107ZM62.2302 39.2161C60.0979 39.2161 58.3682 40.908 58.3682 42.9946C58.3682 45.0812 60.0979 46.7723 62.2302 46.7723C64.3634 46.7723 66.0931 45.0812 66.0931 42.9946C66.0931 40.908 64.3634 39.2161 62.2302 39.2161V39.2161ZM88.9739 39.2161H70.2508C69.0211 39.2161 68.0245 40.1909 68.0245 41.3937V44.5946C68.0245 45.7974 69.0211 46.7723 70.2508 46.7723H88.9739C90.2036 46.7723 91.2002 45.7974 91.2002 44.5946V41.3937C91.2002 40.1909 90.2027 39.2161 88.9739 39.2161ZM88.9739 48.6615H70.2508C69.0211 48.6615 68.0245 49.6372 68.0245 50.8392V54.041C68.0245 55.2429 69.0211 56.2186 70.2508 56.2186H88.9739C90.2036 56.2186 91.2002 55.2429 91.2002 54.041V50.8392C91.2002 49.6372 90.2027 48.6615 88.9739 48.6615ZM88.9739 58.107H70.2508C69.0211 58.107 68.0245 59.0827 68.0245 60.2846V63.4864C68.0245 64.6884 69.0211 65.6641 70.2508 65.6641H88.9739C90.2036 65.6641 91.2002 64.6884 91.2002 63.4864V60.2846C91.2002 59.0827 90.2027 58.107 88.9739 58.107Z" fill="#3F2D20" fill-opacity="0.8"/>
<path d="M80.9442 95.5617C80.9442 96.175 80.4386 96.672 79.8148 96.672H45.4797C44.8558 96.672 44.3502 96.175 44.3502 95.5617V94.4515C44.3502 93.8382 44.8558 93.3412 45.4797 93.3412H78.6853C79.933 93.3412 80.9442 94.3352 80.9442 95.5617ZM8.20801 71.136V80.0181C8.20801 81.2446 9.21921 82.2386 10.4669 82.2386H103.533C104.781 82.2386 105.792 81.2446 105.792 80.0181V71.136H8.20801Z" fill="#B4D2D7"/>
<path d="M103.534 82.08H15.0254C13.7783 82.08 12.7676 81.1002 12.7676 79.8912V71.136H105.792V79.8912C105.792 81.1002 104.781 82.08 103.534 82.08Z" fill="#E1EBF0"/>
<path d="M16.6154 24.624H27.3595V29.3059C27.3595 32.2608 24.7058 34.656 21.4322 34.656C18.1576 34.656 15.5039 32.2608 15.5039 29.3059V25.6274C15.5039 25.0727 16.0015 24.624 16.6154 24.624ZM39.216 29.3059C39.216 32.2608 41.8697 34.656 45.1443 34.656C48.418 34.656 51.0725 32.2608 51.0725 29.3059V24.624H39.216V29.3059ZM62.9282 29.3059C62.9282 32.2608 65.5818 34.656 68.8564 34.656C72.1301 34.656 74.7838 32.2608 74.7838 29.3059V24.624H62.9282V29.3059ZM97.3844 24.624H86.6403V29.3059C86.6403 32.2608 89.294 34.656 92.5677 34.656C95.8422 34.656 98.4959 32.2608 98.4959 29.3059V25.6274C98.4959 25.0727 97.9983 24.624 97.3844 24.624Z" fill="#E4A97F"/>
<path d="M27.3612 24.624H39.2167V29.3059C39.2167 32.2608 36.563 34.656 33.2885 34.656C30.0149 34.656 27.3604 32.2608 27.3604 29.3059V24.624H27.3612ZM51.0722 29.3059C51.0722 32.2608 53.7267 34.656 57.0004 34.656C60.274 34.656 62.9285 32.2608 62.9285 29.3059V24.624H51.073V29.3059H51.0722ZM74.784 24.624V29.3059C74.784 32.2608 77.4377 34.656 80.7122 34.656C83.9858 34.656 86.6404 32.2608 86.6404 29.3059V24.624H74.784Z" fill="#FFDF8E"/>
<path d="M101.016 26.448H12.985C12.3617 26.448 11.8564 25.9717 11.8564 25.384V21.128C11.8564 20.5403 12.3617 20.064 12.985 20.064H101.016C101.639 20.064 102.144 20.5403 102.144 21.128V25.384C102.144 25.9717 101.639 26.448 101.016 26.448Z" fill="#EDC589"/>
<path d="M101.016 22.8H12.985C12.3617 22.8 11.8564 22.1876 11.8564 21.432C11.8564 20.6764 12.3617 20.064 12.985 20.064H101.016C101.639 20.064 102.144 20.6764 102.144 21.432C102.144 22.1876 101.639 22.8 101.016 22.8Z" fill="#94603A" fill-opacity="0.36"/>
<path d="M51.0718 52.44C51.0718 60.247 44.7429 66.576 36.9358 66.576C29.1287 66.576 22.7998 60.247 22.7998 52.44C22.7998 44.6329 29.1287 38.304 36.9358 38.304C44.7429 38.304 51.0718 44.6329 51.0718 52.44Z" fill="#E7B081"/>
<path d="M48.3357 39.6111V46.6572C48.3357 48.6869 47.2239 50.4454 45.5997 51.3101V64.1697C44.2511 65.2434 42.7103 66.0669 41.0397 66.5761V51.3101C39.4163 50.4454 38.3037 48.6869 38.3037 46.6572V39.6111C38.3037 39.3925 38.474 39.2161 38.6839 39.2161C39.8175 39.2161 40.7363 40.173 40.7363 41.3529V45.6274C40.7363 46.0216 41.0422 46.3403 41.4199 46.3403C41.7975 46.3403 42.1043 46.0216 42.1043 45.6274V41.2537C42.1043 40.4785 42.4878 39.7577 43.1183 39.3469C43.2422 39.2661 43.3981 39.2661 43.5212 39.3469C44.1525 39.7577 44.536 40.4785 44.536 41.2537V45.6274C44.536 46.0216 44.842 46.3403 45.2204 46.3403C45.598 46.3403 45.904 46.0216 45.904 45.6274V41.3529C45.904 40.173 46.8227 39.2161 47.9564 39.2161C48.1663 39.2152 48.3357 39.3925 48.3357 39.6111Z" fill="#E1EBF0"/>
<path d="M42.864 51.3556V65.5655C42.0657 65.9778 41.2255 66.3178 40.3504 66.576V51.2578C38.67 50.3901 37.5184 48.6256 37.5184 46.5889V39.5187C37.5184 39.2994 37.6946 39.1223 37.9118 39.1223C39.0417 39.1223 39.9648 40.012 40.0311 41.1352V44.8412C40.0311 44.8412 40.0328 45.2975 40.0355 45.3671C40.0355 45.3671 40.0468 45.6966 40.066 45.7626C40.2187 47.1069 40.8756 48.2961 41.8415 49.1339C42.4845 49.6924 42.864 50.4993 42.864 51.3556ZM34.3129 41.8479C33.7972 39.7645 31.9432 38.304 29.817 38.304C27.6899 38.304 25.8359 39.7645 25.3203 41.8479L24.7793 44.0316C24.6764 44.4474 24.624 44.8747 24.624 45.3037V46.5643C24.624 48.6009 25.7757 50.3654 27.4561 51.2331V64.1614C28.852 65.2387 30.4478 66.065 32.1762 66.576V51.2331C33.8574 50.3654 35.0091 48.6009 35.0091 46.5643V45.3028C35.0091 44.8747 34.9568 44.4474 34.8538 44.0316L34.3129 41.8479Z" fill="#B4D2D7"/>
<path d="M35.5684 45.3037V46.5643C35.5684 47.0241 35.5097 47.469 35.401 47.8936C34.5485 48.7965 33.4294 49.3444 32.2034 49.3444C29.5286 49.3444 27.3604 46.7396 27.3604 43.526C27.3604 41.2471 28.4518 39.2756 30.0403 38.3207C30.1697 38.3092 30.3008 38.304 30.4337 38.304C32.5364 38.304 34.3699 39.7645 34.8807 41.8479L35.4148 44.0316C35.5166 44.4474 35.5684 44.8747 35.5684 45.3037ZM31.6848 53.6688C31.0817 53.6688 30.5933 54.1674 30.5933 54.7823V65.7276C31.2888 66.0694 32.0161 66.3513 32.7676 66.576V54.6484C32.7021 54.097 32.243 53.6688 31.6848 53.6688V53.6688Z" fill="#E1EBF0"/>
</svg>
