<svg width="103" height="117" viewBox="0 0 103 117" fill="none" xmlns="http://www.w3.org/2000/svg">
<mask id="mask0" mask-type="alpha" maskUnits="userSpaceOnUse" x="0" y="0" width="103" height="117">
<rect y="0.361084" width="103" height="116.161" fill="#C4C4C4"/>
</mask>
<g mask="url(#mask0)">
<path d="M51.4992 116.522C78.3617 116.522 100.138 94.6177 100.138 67.5971C100.138 40.5766 78.3617 18.6721 51.4992 18.6721C24.6367 18.6721 2.86035 40.5766 2.86035 67.5971C2.86035 94.6177 24.6367 116.522 51.4992 116.522Z" fill="#EDC589"/>
<mask id="mask1" mask-type="alpha" maskUnits="userSpaceOnUse" x="2" y="1" width="99" height="116">
<path d="M51.4992 116.522C78.3617 116.522 100.138 90.7749 100.138 59.014C100.138 27.253 78.3617 1.50562 51.4992 1.50562C24.6367 1.50562 2.86035 27.253 2.86035 59.014C2.86035 90.7749 24.6367 116.522 51.4992 116.522Z" fill="#84DBFF"/>
</mask>
<g mask="url(#mask1)">
<path d="M54.7686 20.5696L50.7418 20.3889L46.7151 20.5696C46.7151 20.5696 47.017 23.8224 45.2051 26.7135V30.7793L50.7418 32.4056L56.0773 30.8697V26.3522C54.567 23.5514 54.7686 20.5696 54.7686 20.5696Z" fill="#FFE1BE"/>
<path d="M56.0773 26.3972V30.8812L50.7418 32.4056L45.2051 30.7915V26.7559C45.6077 26.128 45.9096 25.4108 46.1112 24.6932C46.816 22.5409 46.6144 20.5682 46.6144 20.5682L50.6412 20.3889L54.668 20.5682C54.668 20.5682 54.4667 22.3616 55.1712 24.5139C55.4731 25.1418 55.7751 25.7696 56.0773 26.3972Z" fill="#FFE1BE"/>
<path d="M63.9338 137.694L65.2343 87.4959L64.3981 74.1777H50.9287V95.2259L56.2236 137.694H63.9338Z" fill="#3F2D20"/>
<path d="M45.6337 137.694L50.9286 95.2259V74.1777H37.4589L36.623 87.4959L37.9236 137.694H45.6337Z" fill="#3F2D20"/>
<path d="M74.3628 62.0056C73.1486 44.1659 68.7593 34.131 68.7593 34.131C58.2059 32.1796 56.1512 27.2554 56.1512 27.2554C55.9644 28.5562 55.871 29.7641 55.6843 30.972H45.6912C45.5044 29.7641 45.4111 28.5562 45.2243 27.2554C45.2243 27.2554 43.1696 32.1799 32.6162 34.131C32.6162 34.131 35.2312 45.2809 36.2586 56.6166H64.0898V74.1776C64.5567 73.8989 65.1172 73.6202 65.584 73.2484C68.4792 71.3902 70.6273 69.4388 72.1215 67.9522C73.7091 66.3728 74.5495 64.2356 74.3628 62.0056ZM64.7434 63.7709C64.7434 60.7048 65.0235 57.3597 65.3036 54.2007L67.6385 61.8198L64.7434 63.7709Z" fill="#E6E9EE"/>
<path d="M54.9339 24.6627L54.651 25.0343C53.9906 25.8706 52.9533 26.4279 51.9157 26.5208L51.161 26.6137C50.7838 26.7066 50.4063 26.7066 49.9348 26.6137L49.2745 26.5208C48.2369 26.335 48.0672 26.1111 46.6367 25.2528L46.0645 24.9667C46.7248 22.7368 46.8221 20.5747 46.8221 20.5747L50.5949 20.3889L54.3678 20.5747C54.4624 20.5744 54.3681 22.4328 54.9339 24.6627Z" fill="#F7CE9E"/>
<path d="M51.2171 8.37207H44.0645L45.1938 20.3303C45.2879 21.1712 45.5702 22.0119 46.135 22.666L47.1703 23.8805C47.829 24.7214 48.8642 25.2819 49.8995 25.3753L50.6525 25.4687C51.0289 25.5621 51.4056 25.5621 51.876 25.4687L52.629 25.3753C53.6643 25.1885 54.6996 24.7212 55.3582 23.8805L56.3935 22.666C56.9581 22.0119 57.2406 21.1712 57.3347 20.3303L58.37 8.37207H51.2171V8.37207Z" fill="#FFE1BE"/>
<path d="M58.7916 15.3048C58.4631 16.0877 57.8057 16.5572 57.2307 16.3224C56.6554 16.0877 56.4912 15.3048 56.82 14.6002C57.1485 13.8174 57.8059 13.3478 58.3809 13.5826C58.8738 13.7391 59.1202 14.522 58.7916 15.3048Z" fill="#FFE1BE"/>
<path d="M43.0686 15.3048C43.3971 16.0877 44.0545 16.5572 44.6295 16.3224C45.2046 16.0877 45.3691 15.3048 45.0403 14.6002C44.7117 13.8174 44.0543 13.3478 43.4793 13.5826C42.9864 13.7391 42.74 14.522 43.0686 15.3048Z" fill="#FFE1BE"/>
<path d="M44.9805 6.09398C44.9805 6.09398 50.8286 -2.39417 58.9401 7.28051L58.0911 7.00676C58.0911 7.00676 59.6002 8.55828 58.2797 14.0346C58.2797 14.0346 57.4307 14.1259 57.0535 16.0427C57.0535 16.0427 56.8649 11.6619 55.6387 10.7491C55.6387 10.7491 47.9987 11.2053 46.0181 9.47132C46.0181 9.47132 44.1318 12.5744 44.8862 16.9555C44.8862 16.9555 43.4714 14.2174 42.6224 12.7571C42.0566 11.7531 41.7734 10.5666 41.7734 9.38007C42.0566 7.82801 42.6224 6.09398 44.9805 6.09398Z" fill="#3F2D20"/>
<path d="M47.6155 74.1595L46.9238 74.0188L47.8464 73.0334L48.3075 73.2446C48.9991 73.5964 48.538 74.3003 47.6155 74.1595Z" fill="#FFD05B"/>
<path d="M55.7847 26.1108C55.7847 26.1108 58.1012 28.1138 55.1531 34.122C55.1531 34.122 51.8892 30.8445 49.7832 31.4819C49.7832 31.4819 54.6268 30.2074 55.7847 26.1108Z" fill="white"/>
<path d="M45.4268 26.1108C45.4268 26.1108 43.3034 28.1138 46.0058 34.122C46.0058 34.122 48.9978 30.8445 50.9282 31.4819C50.9282 31.4819 46.4886 30.2074 45.4268 26.1108Z" fill="white"/>
<path d="M63.2549 32.3867C61.4602 31.6298 60.1377 30.8733 59.0985 30.1165L50.8804 56.5069L42.6622 30.211C41.623 30.9679 40.3006 31.819 38.5059 32.4812C38.6003 32.8595 40.5842 47.2371 36.0498 54.5207L36.4276 70.128L36.7109 81.5734L41.8119 87.9109L50.9748 76.4655L60.1377 87.9109L65.2387 81.5734L65.8054 54.4261C61.2713 47.1426 63.2549 32.765 63.2549 32.3867Z" fill="#DA8C75"/>
<path d="M51.2138 60.4442C51.6878 60.4442 52.0721 59.9318 52.0721 59.2997C52.0721 58.6677 51.6878 58.1553 51.2138 58.1553C50.7398 58.1553 50.3555 58.6677 50.3555 59.2997C50.3555 59.9318 50.7398 60.4442 51.2138 60.4442Z" fill="#C05B5A"/>
<path d="M51.2138 64.4498C51.6878 64.4498 52.0721 63.9374 52.0721 63.3053C52.0721 62.6733 51.6878 62.1609 51.2138 62.1609C50.7398 62.1609 50.3555 62.6733 50.3555 63.3053C50.3555 63.9374 50.7398 64.4498 51.2138 64.4498Z" fill="#C05B5A"/>
<path d="M51.2138 68.4549C51.6878 68.4549 52.0721 68.0707 52.0721 67.5966C52.0721 67.1226 51.6878 66.7383 51.2138 66.7383C50.7398 66.7383 50.3555 67.1226 50.3555 67.5966C50.3555 68.0707 50.7398 68.4549 51.2138 68.4549Z" fill="#C05B5A"/>
<path d="M51.2138 72.4608C51.6878 72.4608 52.0721 72.0765 52.0721 71.6025C52.0721 71.1284 51.6878 70.7441 51.2138 70.7441C50.7398 70.7441 50.3555 71.1284 50.3555 71.6025C50.3555 72.0765 50.7398 72.4608 51.2138 72.4608Z" fill="#C05B5A"/>
<path d="M47.1486 77.0388L42.3438 102.513C42.3438 102.513 50.54 104.105 50.3517 103.918C50.1633 103.637 47.1486 77.0388 47.1486 77.0388Z" fill="#E6E9EE"/>
<path d="M48.6394 78.179L45.9901 78.0868L45.7064 76.5184L45.1388 73.5661L46.4634 73.9351C46.8418 74.0273 47.2205 73.8428 47.4097 73.5661C47.5989 73.1971 47.5043 72.7356 47.1259 72.4589L45.1388 71.1672L38.8939 66.7388L36.623 71.1672L39.9348 74.1195C40.3132 74.4885 40.5973 74.8578 40.7865 75.319L42.8682 80.8546C42.9628 80.9469 42.9628 81.1313 43.0574 81.2236C43.3411 81.5003 43.7198 81.6848 44.0982 81.5926L48.6397 81.1313L48.6394 78.179Z" fill="#FFE1BE"/>
<path d="M46.9238 77.0388V105.65H58.9405V86.9462C58.8466 81.4834 53.4955 77.0388 46.9238 77.0388Z" fill="white"/>
<path d="M26.8968 62.0325C26.705 69.1032 38.8855 75.0571 40.6117 75.8945L43.489 68.2658L36.7753 63.8003L33.7063 61.7534L36.1041 54.1247C34.9531 43.7049 32.6512 34.1223 32.6512 34.1223C32.6512 34.1223 27.3765 44.17 26.8968 62.0325Z" fill="#E6E9EE"/>
<path d="M53.4072 30.8849L50.3555 32.6901L53.4072 34.4954C54.361 35.0369 55.5055 34.4052 55.5055 33.4121V32.1484C55.5055 30.9751 54.2656 30.3431 53.4072 30.8849Z" fill="#3F2D20"/>
<path d="M47.3033 30.8849L50.3551 32.6901L47.3033 34.4954C46.3496 35.0369 45.2051 34.4052 45.2051 33.4121V32.1484C45.2054 30.9751 46.4452 30.3431 47.3033 30.8849Z" fill="#3F2D20"/>
<path d="M50.3563 34.1221C51.3044 34.1221 52.073 33.4816 52.073 32.6915C52.073 31.9015 51.3044 31.261 50.3563 31.261C49.4082 31.261 48.6396 31.9015 48.6396 32.6915C48.6396 33.4816 49.4082 34.1221 50.3563 34.1221Z" fill="#C0AC80"/>
</g>
</g>
</svg>
