<svg width="24" height="25" viewBox="0 0 24 25" fill="none" xmlns="http://www.w3.org/2000/svg">
<path d="M19.8131 2.99521L15.3718 2.99521C15.1503 1.3119 13.5158 0 11.5362 0C9.55664 0 7.92237 1.31185 7.70082 2.99521L3.25938 2.99521C1.46205 2.99521 0 4.27664 0 5.85143L0 5.99798C0 7.20142 0.855194 8.23147 2.05992 8.65117L2.05992 22.1438C2.05992 23.7186 3.52214 25 5.31935 25L17.7531 25C19.5504 25 21.0125 23.7185 21.0125 22.1438L21.0125 8.65122C22.2172 8.23147 23.0724 7.20142 23.0724 5.99803V5.85148C23.0724 4.27664 21.6103 2.99521 19.8131 2.99521ZM11.5362 1.35455C12.6621 1.35455 13.6018 2.06165 13.8098 2.99521L9.263 2.99521C9.47089 2.0616 10.4107 1.35455 11.5362 1.35455ZM19.4666 22.1438C19.4666 22.9718 18.6978 23.6455 17.7531 23.6455L5.31929 23.6455C4.37462 23.6455 3.60577 22.9717 3.60577 22.1438L3.60577 8.8542L19.4666 8.8542L19.4666 22.1438ZM21.5265 5.99798C21.5265 6.82598 20.7577 7.49971 19.813 7.49971L3.25938 7.49971C2.3147 7.49971 1.54585 6.82598 1.54585 5.99798V5.85143C1.54585 5.02343 2.3147 4.34971 3.25938 4.34971L19.8131 4.34971C20.7577 4.34971 21.5266 5.02343 21.5266 5.85143V5.99798H21.5265Z" fill="#AA4443"/>
<path d="M7.39109 21.9132C7.81797 21.9132 8.16401 21.6099 8.16401 21.236V13.6103C8.16401 13.2363 7.81792 12.933 7.39109 12.933C6.96426 12.933 6.61816 13.2363 6.61816 13.6103L6.61816 21.236C6.6181 21.61 6.9642 21.9132 7.39109 21.9132Z" fill="#AA4443"/>
<path d="M11.5356 21.9132C11.9625 21.9132 12.3086 21.6099 12.3086 21.236V13.6103C12.3086 13.2363 11.9624 12.933 11.5356 12.933C11.1088 12.933 10.7627 13.2363 10.7627 13.6103L10.7627 21.236C10.7627 21.61 11.1087 21.9132 11.5356 21.9132Z" fill="#AA4443"/>
<path d="M15.6792 21.9132C16.1061 21.9132 16.4521 21.6099 16.4521 21.236V13.6103C16.4521 13.2363 16.106 12.933 15.6792 12.933C15.2523 12.933 14.9063 13.2363 14.9063 13.6103V21.236C14.9062 21.61 15.2524 21.9132 15.6792 21.9132Z" fill="#AA4443"/>
</svg>
