<svg width="25" height="25" viewBox="0 0 25 25" fill="none" xmlns="http://www.w3.org/2000/svg">
<g clip-path="url(#clip0)">
<path d="M23.074 15.7048C22.7301 15.7048 22.4514 15.9835 22.4514 16.3274V21.8557C22.4502 22.8869 21.6147 23.7226 20.5835 23.7236H3.11315C2.08192 23.7226 1.24648 22.8869 1.24526 21.8557V5.6306C1.24648 4.59962 2.08192 3.76393 3.11315 3.76272H8.64142C8.98532 3.76272 9.26405 3.48399 9.26405 3.14009C9.26405 2.79642 8.98532 2.51746 8.64142 2.51746H3.11315C1.39459 2.5194 0.00194572 3.91205 0 5.6306V21.8559C0.00194572 23.5745 1.39459 24.9671 3.11315 24.9691H20.5835C22.3021 24.9671 23.6947 23.5745 23.6966 21.8559V16.3274C23.6966 15.9835 23.4179 15.7048 23.074 15.7048V15.7048Z" fill="url(#paint0_linear)"/>
<path d="M23.4501 0.915394C22.3559 -0.178829 20.5819 -0.178829 19.4877 0.915394L8.37959 12.0235C8.30346 12.0996 8.2485 12.194 8.2198 12.2976L6.75905 17.5712C6.69897 17.7874 6.76002 18.019 6.9186 18.1778C7.07742 18.3364 7.30896 18.3974 7.52518 18.3376L12.7988 16.8766C12.9024 16.8479 12.9968 16.7929 13.0729 16.7168L24.1808 5.60846C25.2733 4.51351 25.2733 2.74096 24.1808 1.64601L23.4501 0.915394ZM9.73624 12.4282L18.8274 3.33684L21.7593 6.26879L12.668 15.3602L9.73624 12.4282ZM9.15058 13.6034L11.493 15.9461L8.25287 16.8438L9.15058 13.6034ZM23.3003 4.72803L22.64 5.38836L19.7078 2.45616L20.3684 1.79583C20.9762 1.18804 21.9617 1.18804 22.5695 1.79583L23.3003 2.52645C23.9071 3.13497 23.9071 4.11975 23.3003 4.72803V4.72803Z" fill="url(#paint1_linear)"/>
</g>
<defs>
<linearGradient id="paint0_linear" x1="11.8483" y1="-0.0452589" x2="11.8483" y2="26.6033" gradientUnits="userSpaceOnUse">
<stop stop-color="#EDC589"/>
<stop offset="1" stop-color="#DA8C75"/>
</linearGradient>
<linearGradient id="paint1_linear" x1="15.8682" y1="-0.0452659" x2="15.8682" y2="26.6033" gradientUnits="userSpaceOnUse">
<stop stop-color="#EDC589"/>
<stop offset="1" stop-color="#DA8C75"/>
</linearGradient>
<clipPath id="clip0">
<rect width="25" height="25" fill="white"/>
</clipPath>
</defs>
</svg>
