<svg width="48" height="49" viewBox="0 0 48 49" fill="none" xmlns="http://www.w3.org/2000/svg">
<path d="M39.9994 25.0721C39.9994 24.9977 39.9874 24.923 39.9618 24.851C39.4093 23.2985 37.247 17.9373 36.7175 16.4585V9.11892C36.7175 8.27461 36.0306 7.58767 35.1863 7.58767H31.9807V5.93818H34.6844C35.4674 5.93818 36.1044 5.30124 36.1044 4.51824V1.41993C36.1044 0.636936 35.4674 0 34.6844 0H24.9883C24.2053 0 23.5683 0.636936 23.5683 1.41993V4.51818C23.5683 5.30118 24.2053 5.93811 24.9883 5.93811H27.692V7.58761H21.8116V5.3773C21.8116 5.11068 21.6512 4.87024 21.4049 4.76799L19.4991 3.97624C19.337 3.90887 19.1549 3.90887 18.9929 3.97624L17.3397 4.66287L15.6867 3.97624C15.483 3.89168 15.2506 3.91437 15.0672 4.03674C14.8839 4.15912 14.7737 4.36505 14.7737 4.58549V7.58755H12.8137C11.9694 7.58755 11.2825 8.27448 11.2825 9.11879V16.4583C10.7529 17.9372 8.59062 23.2985 8.03819 24.8509L8.03856 24.8515C8.01406 24.9206 8 24.9946 8 25.0721V30.6144C8 30.9788 8.29544 31.2742 8.65981 31.2742H39.3402C39.7045 31.2742 40 30.9788 40 30.6144V25.0721H39.9994ZM24.9883 4.61855C24.933 4.61855 24.8879 4.57355 24.8879 4.51818V1.41993C24.8879 1.36456 24.933 1.31956 24.9883 1.31956H34.6844C34.7398 1.31956 34.7848 1.36456 34.7848 1.41993V4.51818C34.7848 4.57355 34.7398 4.61855 34.6844 4.61855H24.9883ZM30.6611 5.93818V7.58767H29.0116V5.93818H30.6611ZM17.5929 5.98661L19.246 5.30005L20.4921 5.81774V11.7444H16.0935V5.57411L17.0867 5.98668C17.2485 6.05393 17.4308 6.05399 17.5929 5.98661ZM12.6021 9.11886C12.6021 9.00217 12.697 8.90717 12.8137 8.90717H14.7739V12.4041C14.7739 12.7685 15.0694 13.0639 15.4337 13.0639H21.1519C21.5162 13.0639 21.8117 12.7685 21.8117 12.4041V8.90717H35.1862C35.3029 8.90717 35.3979 9.00211 35.3979 9.11886V15.901H12.6021V9.11886ZM12.4108 17.2206H35.5893C36.0902 18.5979 37.9587 23.2297 38.3981 24.4123H9.60193C10.0412 23.2297 11.9099 18.5979 12.4108 17.2206ZM38.6804 29.9546H9.31956V25.7319H38.6803V29.9546H38.6804Z" fill="#6C1E07"/>
<path d="M36.1157 22.1891L35.9693 21.8213C35.8345 21.4827 35.4507 21.3175 35.1124 21.4522C34.7738 21.5869 34.6085 21.9705 34.7432 22.3091L34.8895 22.6769C34.9924 22.9355 35.2404 23.093 35.5027 23.093C35.5838 23.093 35.6664 23.0779 35.7464 23.0461C36.085 22.9114 36.2503 22.5278 36.1157 22.1891Z" fill="#6C1E07"/>
<path d="M34.9755 19.3239L34.8292 18.9561C34.6945 18.6175 34.3108 18.4523 33.9723 18.5869C33.6337 18.7216 33.4684 19.1052 33.603 19.4438L33.7493 19.8116C33.8523 20.0702 34.1003 20.2277 34.3627 20.2277C34.4438 20.2277 34.5263 20.2126 34.6063 20.1808C34.9449 20.0462 35.1102 19.6625 34.9755 19.3239Z" fill="#6C1E07"/>
<path d="M33.1496 21.8765C33.0454 21.5272 32.6777 21.3289 32.3287 21.433C31.9795 21.5372 31.7809 21.9047 31.8852 22.2539L31.995 22.6217C32.0804 22.9079 32.3427 23.093 32.6269 23.093C32.6894 23.093 32.7529 23.084 32.8159 23.0653C33.165 22.961 33.3636 22.5935 33.2594 22.2444L33.1496 21.8765Z" fill="#6C1E07"/>
<path d="M32.4039 19.3792L32.2941 19.0113C32.1899 18.6621 31.8223 18.4635 31.4732 18.5678C31.124 18.672 30.9255 19.0396 31.0297 19.3888L31.1395 19.7566C31.225 20.0428 31.4873 20.2279 31.7715 20.2279C31.834 20.2279 31.8975 20.219 31.9604 20.2002C32.3096 20.0959 32.5082 19.7283 32.4039 19.3792Z" fill="#6C1E07"/>
<path d="M30.3251 21.9365C30.2541 21.5791 29.9065 21.3471 29.5493 21.4181C29.1918 21.4891 28.9598 21.8364 29.0309 22.1939L29.104 22.5617C29.1664 22.8756 29.442 23.0929 29.7504 23.0929C29.793 23.0929 29.8364 23.0888 29.8798 23.0801C30.2372 23.009 30.4692 22.6617 30.3981 22.3043L30.3251 21.9365Z" fill="#6C1E07"/>
<path d="M29.31 20.2149C29.6674 20.1439 29.8995 19.7965 29.8284 19.4391L29.7553 19.0713C29.6843 18.7138 29.3371 18.4817 28.9794 18.5529C28.622 18.6239 28.3899 18.9712 28.4611 19.3287L28.5342 19.6965C28.5966 20.0105 28.8722 20.2277 29.1806 20.2277C29.2233 20.2277 29.2666 20.2235 29.31 20.2149Z" fill="#6C1E07"/>
<path d="M27.4956 21.9998C27.4595 21.6372 27.1367 21.3723 26.7737 21.4086C26.4112 21.4447 26.1464 21.7678 26.1825 22.1305L26.2191 22.4983C26.253 22.8387 26.5399 23.0928 26.8749 23.0928C26.8967 23.0928 26.9187 23.0917 26.941 23.0895C27.3035 23.0535 27.5683 22.7303 27.5322 22.3677L27.4956 21.9998Z" fill="#6C1E07"/>
<path d="M26.6558 20.2242C27.0184 20.1882 27.2831 19.865 27.2471 19.5024L27.2105 19.1345C27.1744 18.7719 26.8521 18.5071 26.4886 18.5434C26.126 18.5794 25.8613 18.9026 25.8973 19.2652L25.934 19.633C25.9679 19.9734 26.2547 20.2276 26.5897 20.2276C26.6116 20.2275 26.6336 20.2264 26.6558 20.2242Z" fill="#6C1E07"/>
<path d="M24.0001 21.4053C23.6358 21.4053 23.3403 21.7006 23.3403 22.0651V22.4329C23.3403 22.7973 23.6358 23.0927 24.0001 23.0927C24.3645 23.0927 24.66 22.7973 24.66 22.4329V22.0651C24.66 21.7006 24.3645 21.4053 24.0001 21.4053Z" fill="#6C1E07"/>
<path d="M24.0001 18.54C23.6358 18.54 23.3403 18.8354 23.3403 19.1998V19.5677C23.3403 19.932 23.6358 20.2275 24.0001 20.2275C24.3645 20.2275 24.66 19.9321 24.66 19.5677V19.1998C24.66 18.8354 24.3645 18.54 24.0001 18.54Z" fill="#6C1E07"/>
<path d="M21.2261 21.4086C20.8628 21.3721 20.5403 21.6373 20.5043 21.9998L20.4676 22.3676C20.4316 22.7303 20.6963 23.0534 21.0589 23.0895C21.0811 23.0918 21.1031 23.0928 21.125 23.0928C21.46 23.0928 21.7469 22.8387 21.7808 22.4983L21.8174 22.1305C21.8534 21.7679 21.5887 21.4446 21.2261 21.4086Z" fill="#6C1E07"/>
<path d="M21.5113 18.5434C21.1484 18.5068 20.8254 18.772 20.7894 19.1346L20.7528 19.5024C20.7167 19.865 20.9815 20.1883 21.3441 20.2243C21.3663 20.2265 21.3883 20.2276 21.4102 20.2276C21.7452 20.2276 22.0321 19.9735 22.0659 19.633L22.1026 19.2652C22.1386 18.9027 21.8739 18.5795 21.5113 18.5434Z" fill="#6C1E07"/>
<path d="M18.4506 21.4181C18.0929 21.347 17.7458 21.5791 17.6748 21.9365L17.6017 22.3043C17.5306 22.6617 17.7627 23.0091 18.12 23.0801C18.1635 23.0887 18.2067 23.0929 18.2494 23.0929C18.5577 23.0929 18.8335 22.8757 18.8958 22.5617L18.9689 22.1939C19.04 21.8364 18.808 21.4891 18.4506 21.4181Z" fill="#6C1E07"/>
<path d="M19.0204 18.5529C18.6631 18.4817 18.3156 18.7139 18.2446 19.0713L18.1715 19.4391C18.1004 19.7965 18.3325 20.1438 18.6899 20.2149C18.7333 20.2235 18.7766 20.2277 18.8192 20.2277C19.1276 20.2277 19.4033 20.0105 19.4656 19.6965L19.5387 19.3287C19.61 18.9712 19.3779 18.6239 19.0204 18.5529Z" fill="#6C1E07"/>
<path d="M15.6714 21.4326C15.3222 21.3282 14.9546 21.5269 14.8504 21.8761L14.7406 22.2439C14.6364 22.5931 14.835 22.9606 15.1841 23.0648C15.2471 23.0836 15.3106 23.0925 15.3731 23.0925C15.6573 23.0925 15.9196 22.9075 16.005 22.6213L16.1148 22.2534C16.2191 21.9044 16.0205 21.5368 15.6714 21.4326Z" fill="#6C1E07"/>
<path d="M16.5264 18.5678C16.1771 18.4635 15.8097 18.6622 15.7054 19.0113L15.5956 19.3791C15.4914 19.7283 15.69 20.0959 16.0391 20.2001C16.1021 20.2189 16.1656 20.2278 16.2281 20.2278C16.5122 20.2278 16.7746 20.0428 16.86 19.7565L16.9698 19.3886C17.0741 19.0396 16.8756 18.672 16.5264 18.5678Z" fill="#6C1E07"/>
<path d="M12.8875 21.4522C12.549 21.3175 12.1654 21.4828 12.0306 21.8213L11.8843 22.1891C11.7496 22.5277 11.9149 22.9113 12.2535 23.0461C12.3336 23.078 12.416 23.093 12.4972 23.093C12.7595 23.093 13.0076 22.9355 13.1105 22.677L13.2568 22.3091C13.3914 21.9706 13.2262 21.5869 12.8875 21.4522Z" fill="#6C1E07"/>
<path d="M14.0277 18.5869C13.6891 18.4522 13.3056 18.6176 13.1707 18.9562L13.0244 19.324C12.8897 19.6626 13.0551 20.0462 13.3937 20.1809C13.4737 20.2127 13.5562 20.2278 13.6374 20.2278C13.8997 20.2278 14.1477 20.0703 14.2506 19.8117L14.3969 19.4439C14.5315 19.1052 14.3662 18.7217 14.0277 18.5869Z" fill="#6C1E07"/>
<path d="M33.4183 10.2266H26.2541C25.8897 10.2266 25.5942 10.5219 25.5942 10.8864V13.9214C25.5942 14.2858 25.8897 14.5812 26.2541 14.5812H33.4183C33.7826 14.5812 34.0781 14.2859 34.0781 13.9214V10.8864C34.0781 10.5219 33.7826 10.2266 33.4183 10.2266ZM32.7585 13.2616H26.9139V11.5462H32.7585V13.2616Z" fill="#6C1E07"/>
<path d="M17.6662 9.15458H18.9198C19.2841 9.15458 19.5796 8.85921 19.5796 8.49477C19.5796 8.1304 19.2842 7.83496 18.9198 7.83496H17.6662C17.3018 7.83496 17.0063 8.13034 17.0063 8.49477C17.0063 8.85921 17.3018 9.15458 17.6662 9.15458Z" fill="#6C1E07"/>
<path d="M6.23379 46.5254C6.07266 46.5957 5.92617 46.6616 5.79434 46.7231C5.66543 46.7847 5.49551 46.8491 5.28457 46.9165C5.10586 46.9722 4.91104 47.019 4.7001 47.0571C4.49209 47.0981 4.26211 47.1187 4.01016 47.1187C3.53555 47.1187 3.10342 47.0527 2.71377 46.9209C2.32705 46.7861 1.99014 46.5767 1.70303 46.2925C1.42178 46.0142 1.20205 45.6611 1.04385 45.2334C0.885645 44.8027 0.806543 44.3032 0.806543 43.7349C0.806543 43.1958 0.882715 42.7139 1.03506 42.2891C1.1874 41.8643 1.40713 41.5054 1.69424 41.2124C1.97256 40.9282 2.30801 40.7114 2.70059 40.562C3.09609 40.4126 3.53408 40.3379 4.01455 40.3379C4.36611 40.3379 4.71621 40.3804 5.06484 40.4653C5.41641 40.5503 5.80606 40.6997 6.23379 40.9136V41.9463H6.16787C5.80752 41.6445 5.4501 41.4248 5.09561 41.2871C4.74111 41.1494 4.36172 41.0806 3.95742 41.0806C3.62637 41.0806 3.32754 41.1348 3.06094 41.2432C2.79727 41.3486 2.56143 41.5142 2.35342 41.7397C2.15127 41.9595 1.99307 42.2378 1.87881 42.5747C1.76748 42.9087 1.71182 43.2954 1.71182 43.7349C1.71182 44.1948 1.77334 44.5903 1.89639 44.9214C2.02236 45.2524 2.1835 45.522 2.37979 45.73C2.58486 45.9468 2.82363 46.1079 3.09609 46.2134C3.37148 46.3159 3.66152 46.3672 3.96621 46.3672C4.38516 46.3672 4.77773 46.2954 5.14395 46.1519C5.51016 46.0083 5.85293 45.793 6.17227 45.5059H6.23379V46.5254ZM13.5234 47H12.5962L11.9546 45.1763H9.12451L8.48291 47H7.59961L9.98145 40.4565H11.1416L13.5234 47ZM11.6865 44.4292L10.5396 41.2168L9.38818 44.4292H11.6865ZM20.1715 45.1323C20.1715 45.3872 20.1114 45.6392 19.9913 45.8882C19.8741 46.1372 19.7086 46.3481 19.4947 46.521C19.2604 46.7085 18.9864 46.855 18.6729 46.9604C18.3624 47.0659 17.9874 47.1187 17.5479 47.1187C17.0763 47.1187 16.6515 47.0747 16.2735 46.9868C15.8985 46.8989 15.5162 46.7686 15.1266 46.5957V45.5059H15.1881C15.5191 45.7812 15.9015 45.9937 16.3351 46.1431C16.7687 46.2925 17.1759 46.3672 17.5567 46.3672C18.0958 46.3672 18.5147 46.2661 18.8136 46.064C19.1153 45.8618 19.2662 45.5923 19.2662 45.2554C19.2662 44.9653 19.1944 44.7515 19.0509 44.6138C18.9103 44.4761 18.6949 44.3691 18.4049 44.293C18.1852 44.2344 17.9464 44.186 17.6886 44.1479C17.4337 44.1099 17.1627 44.0615 16.8756 44.0029C16.2955 43.8799 15.8648 43.6704 15.5836 43.3745C15.3053 43.0757 15.1661 42.6875 15.1661 42.21C15.1661 41.6621 15.3976 41.2139 15.8604 40.8652C16.3233 40.5137 16.9107 40.3379 17.6227 40.3379C18.0826 40.3379 18.5045 40.3818 18.8883 40.4697C19.2721 40.5576 19.6119 40.666 19.9078 40.7949V41.8232H19.8463C19.5973 41.6123 19.2691 41.438 18.8619 41.3003C18.4576 41.1597 18.0431 41.0894 17.6183 41.0894C17.1524 41.0894 16.7774 41.186 16.4933 41.3794C16.212 41.5728 16.0714 41.8218 16.0714 42.1265C16.0714 42.3989 16.1417 42.6128 16.2823 42.7681C16.4229 42.9233 16.6705 43.042 17.025 43.124C17.2125 43.165 17.4791 43.2148 17.8248 43.2734C18.1705 43.332 18.4635 43.3921 18.7037 43.4536C19.19 43.5825 19.5563 43.7773 19.8023 44.0381C20.0484 44.2988 20.1715 44.6636 20.1715 45.1323ZM27.4743 47H26.6042V43.7964H23.3391V47H22.4689V40.4565H23.3391V43.0229H26.6042V40.4565H27.4743V47ZM32.4437 47H29.8597V46.332H30.7166V41.1245H29.8597V40.4565H32.4437V41.1245H31.5867V46.332H32.4437V47ZM39.1356 47H34.8246V40.4565H39.1356V41.23H35.6947V43.0229H39.1356V43.7964H35.6947V46.2266H39.1356V47ZM46.834 47H45.7046L43.5161 44.3984H42.29V47H41.4199V40.4565H43.2524C43.6479 40.4565 43.9775 40.4829 44.2412 40.5356C44.5049 40.5854 44.7422 40.6763 44.9531 40.8081C45.1904 40.9575 45.375 41.1465 45.5068 41.375C45.6416 41.6006 45.709 41.8877 45.709 42.2363C45.709 42.708 45.5903 43.1035 45.353 43.4229C45.1157 43.7393 44.7891 43.978 44.373 44.1392L46.834 47ZM44.7993 42.2979C44.7993 42.1104 44.7656 41.9448 44.6982 41.8013C44.6338 41.6548 44.5254 41.5317 44.373 41.4321C44.2471 41.3472 44.0977 41.2886 43.9248 41.2563C43.752 41.2212 43.5483 41.2036 43.314 41.2036H42.29V43.6733H43.1689C43.4443 43.6733 43.6846 43.6499 43.8896 43.603C44.0947 43.5532 44.269 43.4624 44.4126 43.3306C44.5444 43.2075 44.6411 43.0669 44.7026 42.9087C44.7671 42.7476 44.7993 42.5439 44.7993 42.2979Z" fill="#6C1E07"/>
</svg>
