<svg width="40" height="57" viewBox="0 0 40 57" fill="none" xmlns="http://www.w3.org/2000/svg">
<path d="M36.6673 3.33343C36.6652 1.49322 35.174 0.00213623 33.3341 0H3.3335C1.49326 0.00213623 0.00213628 1.49322 0 3.33343V27.9998C0.00213628 29.84 1.49326 31.3311 3.3335 31.3333H14.1931C14.8581 33.1146 15.8957 34.7335 17.2364 36.0818L17.2425 36.0913L17.2516 36.0974C20.1063 38.9556 24.1054 40.3622 28.121 39.92C32.1366 39.4778 35.7337 37.2351 37.8981 33.8238C37.91 33.8085 37.9274 33.7994 37.9381 33.7826C37.9475 33.7609 37.9555 33.7387 37.9622 33.7161C41.1001 28.7356 40.5724 22.2818 36.6673 17.8772V3.33343ZM3.3335 30C2.22874 30 1.33334 29.1046 1.33334 27.9998V3.33343C1.33334 2.2287 2.22874 1.33331 3.3335 1.33331H33.3341C34.4386 1.33331 35.334 2.2287 35.334 3.33343V16.5545C34.9326 16.2069 34.5112 15.8835 34.0714 15.5859L34.0641 15.5786C34.0601 15.5786 34.0546 15.5786 34.0501 15.5734C33.8181 15.4181 33.5761 15.278 33.3341 15.1373V7.94005C33.3161 7.22075 32.7201 6.6513 32.0008 6.66655H4.66684C3.94753 6.6513 3.3512 7.22075 3.3335 7.94005V26.7266C3.3512 27.4459 3.94753 28.0151 4.66684 27.9998H13.4002C13.4729 28.6752 13.5968 29.3438 13.7716 30H3.3335ZM17.7372 34.6539C14.6533 31.2261 13.8131 26.3317 15.5774 22.0718C17.3417 17.8119 21.3963 14.9444 26.0006 14.7006V26.3906L17.7372 34.6539ZM10.667 26.6665V23.9999H13.6004C13.4222 24.8776 13.3328 25.7711 13.3337 26.6665H10.667ZM4.66684 26.6632V23.9999H9.33368V26.6665L4.66684 26.6632ZM32.0008 8.00536V10.6668H10.667V7.99987L32.0008 8.00536ZM26.6671 13.3334C24.6666 13.3356 22.6927 13.7915 20.8937 14.6667H10.667V12.0001H32.0008V14.4546C30.3198 13.7149 28.5037 13.3331 26.6671 13.3334ZM13.9483 22.6666H10.667V20H15.1376C14.6445 20.8426 14.2456 21.7367 13.9483 22.6666ZM4.66684 14.6667V12.0001H9.33368V14.6667H4.66684ZM9.33368 16V18.6667H4.66684V16H9.33368ZM4.66684 20H9.33368V22.6666H4.66684V20ZM16.0257 18.6667H10.667V16H18.7009C17.688 16.7584 16.7874 17.6562 16.0257 18.6667ZM9.33368 10.6668H4.66684V7.99987H9.33368V10.6668ZM27.3339 14.7006C29.2462 14.8037 31.1054 15.3671 32.7533 16.3427L27.3339 24.4665V14.7006ZM26.6671 38.6666C23.7172 38.6663 20.872 37.5741 18.6799 35.5999L26.762 27.5146L36.4286 33.6193C34.1834 36.7822 30.5463 38.663 26.6671 38.6666V38.6666ZM37.148 32.4954L27.6007 26.4666L33.8608 17.0834C38.6675 20.668 40.0734 27.2601 37.1474 32.4938L37.148 32.4954Z" fill="#855B3C"/>
<path d="M4.66682 3.66681H6.00016C6.36821 3.66681 6.66668 3.36835 6.66668 3C6.66668 2.63196 6.36821 2.3335 6.00016 2.3335H4.66682C4.29847 2.3335 4 2.63196 4 3C4 3.36835 4.29847 3.66681 4.66682 3.66681Z" fill="#855B3C"/>
<path d="M8.66682 3.66681H10.0002C10.3685 3.66681 10.667 3.36835 10.667 3C10.667 2.63196 10.3685 2.3335 10.0002 2.3335H8.66682C8.29877 2.3335 8 2.63196 8 3C8 3.36835 8.29877 3.66681 8.66682 3.66681Z" fill="#855B3C"/>
<path d="M12.667 3.66681H15.3337C15.702 3.66681 16.0005 3.36835 16.0005 3C16.0005 2.63196 15.702 2.3335 15.3337 2.3335H12.667C12.299 2.3335 12.0005 2.63196 12.0005 3C12.0005 3.36835 12.299 3.66681 12.667 3.66681Z" fill="#855B3C"/>
<path d="M18 3.66681H32.6671C33.0354 3.66681 33.3339 3.36835 33.3339 3C33.3339 2.63196 33.0354 2.3335 32.6671 2.3335H18C17.632 2.3335 17.3335 2.63196 17.3335 3C17.3335 3.36835 17.632 3.66681 18 3.66681Z" fill="#855B3C"/>
<path d="M8.19189 55H7.26465L6.62305 53.1763H3.79297L3.15137 55H2.26807L4.6499 48.4565H5.81006L8.19189 55ZM6.35498 52.4292L5.20801 49.2168L4.05664 52.4292H6.35498ZM15.6134 51.7349C15.6134 52.3296 15.483 52.8687 15.2223 53.3521C14.9645 53.8354 14.6202 54.2104 14.1896 54.4771C13.8907 54.6616 13.5567 54.7949 13.1876 54.877C12.8214 54.959 12.338 55 11.7374 55H10.0851V48.4565H11.7198C12.3585 48.4565 12.8653 48.5034 13.2403 48.5972C13.6183 48.688 13.9376 48.814 14.1983 48.9751C14.6437 49.2534 14.9908 49.624 15.2398 50.0869C15.4889 50.5498 15.6134 51.0991 15.6134 51.7349ZM14.7037 51.7217C14.7037 51.209 14.6144 50.7769 14.4356 50.4253C14.2569 50.0737 13.9903 49.7969 13.6358 49.5947C13.378 49.4482 13.1041 49.3472 12.8141 49.2915C12.524 49.2329 12.1769 49.2036 11.7726 49.2036H10.9552V54.2529H11.7726C12.1915 54.2529 12.5563 54.2222 12.8668 54.1606C13.1803 54.0991 13.4674 53.9849 13.7281 53.8179C14.0533 53.6099 14.2965 53.3359 14.4576 52.9961C14.6217 52.6562 14.7037 52.2314 14.7037 51.7217ZM23.7468 55H22.8767V49.3618L21.0573 53.1982H20.5388L18.7326 49.3618V55H17.9196V48.4565H19.1062L20.8508 52.0996L22.5383 48.4565H23.7468V55ZM28.7117 55H26.1277V54.332H26.9847V49.1245H26.1277V48.4565H28.7117V49.1245H27.8548V54.332H28.7117V55ZM36.0849 55H35.0082L31.9057 49.1465V55H31.0927V48.4565H32.4418L35.2719 53.8003V48.4565H36.0849V55Z" fill="#855B3C"/>
</svg>
