<svg width="20" height="20" viewBox="0 0 20 20" fill="none" xmlns="http://www.w3.org/2000/svg">
<g clip-path="url(#clip0)">
<path d="M19.9146 0.56764C19.7536 0.198965 19.4749 0.014603 19.0773 0.0144043H0.92226C0.525169 0.0144043 0.246116 0.198965 0.0853521 0.56764C-0.0753128 0.955193 -0.00918882 1.28636 0.284022 1.56049L7.27682 8.55309V15.4464C7.27682 15.6926 7.36669 15.9051 7.54629 16.085L11.1771 19.7158C11.3475 19.8953 11.5602 19.9854 11.8156 19.9854C11.929 19.9854 12.0471 19.9616 12.17 19.9144C12.539 19.7535 12.7235 19.4747 12.7235 19.0775V8.55314L19.716 1.56054C20.0093 1.28641 20.0753 0.955342 19.9146 0.56764Z" fill="#C0AC80"/>
</g>
<defs>
<clipPath id="clip0">
<rect width="20" height="20" fill="white"/>
</clipPath>
</defs>
</svg>
