<svg width="38" height="38" viewBox="0 0 38 38" fill="none" xmlns="http://www.w3.org/2000/svg">
<path d="M0 9.38182V28.6182C0 31.2688 2.16235 33.4312 4.81297 33.4312H20.3602C23.0108 33.4312 25.1732 31.2688 25.1732 28.6182V25.5026C25.1732 24.9755 24.7469 24.5493 24.2199 24.5493C23.6928 24.5493 23.2666 24.9755 23.2666 25.5026V28.6182C23.2666 30.2225 21.9568 31.5323 20.3524 31.5323H4.81297C3.20865 31.5323 1.89884 30.2225 1.89884 28.6182V9.38182C1.89884 7.7775 3.20865 6.46768 4.81297 6.46768H20.3602C21.9645 6.46768 23.2743 7.7775 23.2743 9.38182V12.4975C23.2743 13.0245 23.7006 13.4508 24.2276 13.4508C24.7546 13.4508 25.1809 13.0245 25.1809 12.4975V9.38182C25.1809 6.7312 23.0186 4.56885 20.3679 4.56885H4.81297C2.16235 4.56885 0 6.72345 0 9.38182Z" fill="#C0AC80"/>
<path d="M29.8697 26.1689C30.0557 26.3549 30.2959 26.4479 30.5439 26.4479C30.792 26.4479 31.0322 26.3549 31.2182 26.1689L37.7208 19.6663C38.0928 19.2943 38.0928 18.6975 37.7208 18.3255L31.2182 11.823C30.8462 11.4509 30.2494 11.4509 29.8774 11.823C29.5054 12.195 29.5054 12.7918 29.8774 13.1638L34.7601 18.0465H16.9421C16.415 18.0465 15.9888 18.4728 15.9888 18.9998C15.9888 19.5268 16.415 19.9531 16.9421 19.9531H34.7524L29.8697 24.8358C29.4976 25.2001 29.4976 25.8046 29.8697 26.1689Z" fill="#C0AC80"/>
</svg>
