<svg width="38" height="38" viewBox="0 0 38 38" fill="none" xmlns="http://www.w3.org/2000/svg">
<g clip-path="url(#clip0)">
<path d="M0 9.38182V28.6182C0 31.2688 2.16235 33.4312 4.81297 33.4312H20.3602C23.0108 33.4312 25.1732 31.2688 25.1732 28.6182V25.5026C25.1732 24.9755 24.7469 24.5493 24.2199 24.5493C23.6928 24.5493 23.2666 24.9755 23.2666 25.5026V28.6182C23.2666 30.2225 21.9568 31.5323 20.3524 31.5323H4.81297C3.20865 31.5323 1.89884 30.2225 1.89884 28.6182V9.38182C1.89884 7.7775 3.20865 6.46768 4.81297 6.46768H20.3602C21.9645 6.46768 23.2743 7.7775 23.2743 9.38182V12.4975C23.2743 13.0245 23.7006 13.4508 24.2276 13.4508C24.7546 13.4508 25.1809 13.0245 25.1809 12.4975V9.38182C25.1809 6.7312 23.0186 4.56885 20.3679 4.56885H4.81297C2.16235 4.56885 0 6.72345 0 9.38182Z" fill="#DA8C75"/>
<path d="M29.8701 26.1691C30.0562 26.3551 30.2964 26.4481 30.5444 26.4481C30.7924 26.4481 31.0327 26.3551 31.2187 26.1691L37.7213 19.6666C38.0933 19.2946 38.0933 18.6978 37.7213 18.3258L31.2187 11.8232C30.8467 11.4512 30.2499 11.4512 29.8779 11.8232C29.5059 12.1952 29.5059 12.792 29.8779 13.164L34.7606 18.0467H16.9426C16.4155 18.0467 15.9893 18.473 15.9893 19C15.9893 19.5271 16.4155 19.9533 16.9426 19.9533H34.7529L29.8701 24.8361C29.4981 25.2003 29.4981 25.8049 29.8701 26.1691Z" fill="#DA8C75"/>
</g>
<defs>
<clipPath id="clip0">
<rect width="38" height="38" fill="white"/>
</clipPath>
</defs>
</svg>
