<svg width="45" height="45" viewBox="0 0 45 45" fill="none" xmlns="http://www.w3.org/2000/svg">
<path d="M9.75288 37.9027L17.4903 34.5846C17.9098 34.3749 18.2511 33.6973 18.4914 33.2142C18.7079 32.7778 18.3844 32.2641 17.897 32.2641H12.4249C12.4249 32.2641 10.4466 32.0705 8.92081 31.4151C8.02675 31.0313 7.71939 30.5244 8.27807 29.7288C9.91251 27.4024 13.2909 21.9243 13.4004 16.267C13.4004 16.267 13.5881 7.55826 22.1797 7.48779C27.1917 7.5294 29.5588 10.479 30.6618 12.9302C31.2765 14.2981 31.5405 15.789 31.639 17.2851C31.9956 22.6774 34.7415 27.6096 36.021 29.7169C36.4549 30.4318 36.2452 31.3836 35.5277 31.8133C34.3509 32.5171 32.9101 32.2641 32.9101 32.2641H27.4014C26.8631 32.2641 26.6253 33.0164 27.0482 33.3501C27.3929 33.6218 27.7215 33.8671 27.8989 33.9639L34.3348 37.8585C35.2636 38.3654 36.0049 39.1177 36.5092 40.0058C32.6469 43.1278 27.7334 45 22.3801 45C16.7984 45 11.6947 42.9631 7.7627 39.5974C8.27637 38.8969 8.94628 38.306 9.75288 37.9027Z" fill="#F9F9F9"/>
<path d="M22.5 0C10.0732 0 0 10.0741 0 22.5C0 29.3111 3.03113 35.4108 7.81302 39.5372C8.32075 38.8639 8.97113 38.2941 9.75396 37.9027L17.4914 34.5846C17.9108 34.3749 18.2522 33.6974 18.4925 33.2142C18.709 32.7778 18.3855 32.2642 17.8981 32.2642H12.4259C12.4259 32.2642 10.4476 32.0706 8.92189 31.4151C8.02783 31.0313 7.72047 30.5244 8.27915 29.7289C9.91359 27.4025 13.292 21.9243 13.4015 16.2671C13.4015 16.2671 13.5892 7.5583 22.1808 7.48783C27.1927 7.52943 29.5599 10.4791 30.6628 12.9303C31.2775 14.2981 31.5416 15.7891 31.6401 17.2851C31.9967 22.6775 34.7425 27.6096 36.0221 29.717C36.4559 30.4319 36.2462 31.3837 35.5288 31.8133C34.3511 32.5172 32.9103 32.2642 32.9103 32.2642H27.4016C26.8633 32.2642 26.6256 33.0164 27.0484 33.3501C27.3931 33.6218 27.7217 33.8672 27.8992 33.964L34.335 37.8586C35.2571 38.3612 35.9924 39.1059 36.4958 39.9855C36.5179 40.0067 36.5425 40.0262 36.5638 40.0491C41.7031 35.9261 45 29.6015 45 22.5C45 10.0741 34.9268 0 22.5 0Z" fill="#C0AC80"/>
</svg>
