<svg width="40" height="40" viewBox="0 0 40 40" fill="none" xmlns="http://www.w3.org/2000/svg">
<path d="M20 40C31.0457 40 40 31.0457 40 20C40 8.9543 31.0457 0 20 0C8.9543 0 0 8.9543 0 20C0 31.0457 8.9543 40 20 40Z" fill="#EDC589"/>
<path d="M15.8136 7.94606C15.8136 7.94606 14.7616 7.33114 13.1536 8.82145C10.3927 11.3804 9.88763 20.4039 14.8372 28.1817H26.184C26.184 28.1817 31.6273 15.6676 26.0156 9.33762C22.2078 5.04239 15.8136 7.94606 15.8136 7.94606Z" fill="#3F2D20"/>
<path d="M23.3336 22.8296H16.667V30.9777H23.3336V22.8296Z" fill="#F7CE9E"/>
<path d="M15.5823 27.4574L12.0495 28.1639C10.2507 28.5238 8.95605 30.1031 8.95605 31.9374V36.6099C12.1148 38.7246 15.9131 39.9585 19.9998 39.9585C24.0865 39.9585 27.8848 38.7246 31.0436 36.6099V31.9374C31.0436 30.103 29.7489 28.5236 27.9501 28.1639L24.4173 27.4574L23.7929 26.546C23.6761 26.3753 23.4549 26.311 23.2649 26.3924L19.9998 30.1033L16.7543 26.3939C16.5656 26.3117 16.345 26.3735 16.2266 26.5418L15.5823 27.4574Z" fill="#D9EDEC"/>
<path d="M27.1504 16.0498C27.1863 15.7182 27.205 15.3913 27.205 15.0725C27.205 10.8558 23.9789 7.4375 19.9996 7.4375C16.0202 7.4375 12.7942 10.8557 12.7942 15.0725C12.7942 15.3912 12.8129 15.7181 12.8487 16.0498C12.1499 16.2315 11.8173 17.3066 12.1061 18.4573C12.3957 19.6117 13.2009 20.4043 13.9043 20.2277C13.9685 20.2117 14.0282 20.1857 14.0861 20.1553C15.3882 22.7687 17.551 24.8892 19.9996 24.8892C22.4482 24.8892 24.611 22.769 25.9131 20.1553C25.9709 20.1858 26.0307 20.2117 26.0948 20.2277C26.7982 20.4043 27.6033 19.6117 27.8931 18.4573C28.1818 17.3066 27.8493 16.2312 27.1504 16.0498Z" fill="#FFE1BE"/>
<path d="M19.9994 37.6141L16.5088 31.3508L19.9994 30.1033L23.49 31.3508L19.9994 37.6141Z" fill="#B7CECC"/>
<path d="M14.7924 27.6152L12.001 28.1334C10.1913 28.4954 8.88867 30.0843 8.88867 31.9298V36.631C12.0552 38.7508 15.8605 39.9901 19.9549 39.9991V36.3827L14.7924 27.6152Z" fill="#DA8C75"/>
<path d="M27.9987 28.1334L25.1961 27.613L19.9999 36.4588L19.9551 36.3827V39.9991C19.97 39.9991 19.9848 39.9998 19.9999 39.9998C24.1116 39.9998 27.933 38.7583 31.111 36.6309V31.9299C31.111 30.0844 29.8084 28.4955 27.9987 28.1334Z" fill="#DA8C75"/>
<path d="M25.8476 21.852C25.8127 14.6673 17.2618 12.1213 17.2618 12.1213C17.2618 12.1213 15.5749 14.7935 12.8493 16.0501C12.8493 16.0501 12.3909 16.1281 12.0765 16.9362C11.7622 17.7442 11.0665 10.0338 16.2853 7.60963C21.5041 5.1854 25.4755 7.4158 27.329 11.549C30.2584 18.0809 25.8476 21.852 25.8476 21.852Z" fill="#3F2D20"/>
<path d="M19.9998 31.8963C20.1858 31.8963 20.3365 31.7456 20.3365 31.5596C20.3365 31.3737 20.1858 31.2229 19.9998 31.2229C19.8138 31.2229 19.6631 31.3737 19.6631 31.5596C19.6631 31.7456 19.8138 31.8963 19.9998 31.8963Z" fill="#D9EDEC"/>
<path d="M19.9998 33.2889C20.1858 33.2889 20.3365 33.1382 20.3365 32.9522C20.3365 32.7662 20.1858 32.6155 19.9998 32.6155C19.8138 32.6155 19.6631 32.7662 19.6631 32.9522C19.6631 33.1382 19.8138 33.2889 19.9998 33.2889Z" fill="#D9EDEC"/>
</svg>
