<svg width="38" height="38" viewBox="0 0 38 38" fill="none" xmlns="http://www.w3.org/2000/svg">
<g filter="url(#filter0_d)">
<circle cx="19" cy="15" r="14" fill="#DA8C75"/>
<path d="M19.2381 0C10.8227 0 4 6.34651 4 14.7616C4 23.1767 10.8227 30 19.2381 30C27.6534 30 34 23.1774 34 14.7619C34 6.34641 27.6535 0 19.2381 0ZM26.4818 10.4897L25.0345 11.937L22.0884 8.99104L20.9707 10.1087L23.9169 13.0548L16.6908 20.2803L13.7448 17.3347L12.6272 18.4524L15.5731 21.3983L14.853 22.1183L14.8393 22.1046C14.7595 22.2361 14.6296 22.332 14.4754 22.3662L11.7282 22.9788C11.6871 22.988 11.6452 22.9925 11.6039 22.9925C11.4539 22.9925 11.3082 22.9335 11.2003 22.8252C11.0617 22.6871 11.004 22.4877 11.0467 22.2966L11.6589 19.5502C11.6935 19.3961 11.7896 19.266 11.9208 19.1863L11.9069 19.1724L23.5356 7.54321C23.7061 7.37305 23.983 7.37305 24.1535 7.54372L26.482 9.8718C26.6525 10.0423 26.6525 10.3192 26.4818 10.4897Z" fill="#F9F9F9"/>
</g>
<defs>
<filter id="filter0_d" x="0" y="0" width="38" height="38" filterUnits="userSpaceOnUse" color-interpolation-filters="sRGB">
<feFlood flood-opacity="0" result="BackgroundImageFix"/>
<feColorMatrix in="SourceAlpha" type="matrix" values="0 0 0 0 0 0 0 0 0 0 0 0 0 0 0 0 0 0 127 0"/>
<feOffset dy="4"/>
<feGaussianBlur stdDeviation="2"/>
<feColorMatrix type="matrix" values="0 0 0 0 0 0 0 0 0 0 0 0 0 0 0 0 0 0 0.15 0"/>
<feBlend mode="normal" in2="BackgroundImageFix" result="effect1_dropShadow"/>
<feBlend mode="normal" in="SourceGraphic" in2="effect1_dropShadow" result="shape"/>
</filter>
</defs>
</svg>
