<svg width="16" height="16" viewBox="0 0 16 16" fill="none" xmlns="http://www.w3.org/2000/svg">
<g clip-path="url(#clip0)">
<path d="M7.23554 7.94614L0.153539 15.0281C-0.0432109 15.2249 -0.0432109 15.5436 0.153539 15.7404C0.251789 15.8389 0.380789 15.8879 0.509539 15.8879C0.638539 15.8879 0.767289 15.8389 0.865539 15.7404L8.00079 8.60514L15.136 15.7404C15.2345 15.8389 15.3633 15.8879 15.492 15.8879C15.6208 15.8879 15.7498 15.8389 15.848 15.7404C16.0448 15.5436 16.0448 15.2249 15.848 15.0281L8.76629 7.94614L15.8528 0.859137C16.0495 0.662387 16.0495 0.343637 15.8528 0.146887C15.656 -0.0496133 15.3373 -0.0496133 15.1408 0.146887L8.00104 7.28714L0.860539 0.147137C0.663789 -0.0493633 0.345289 -0.0493633 0.148539 0.147137C-0.0482109 0.343887 -0.0482109 0.662637 0.148539 0.859387L7.23554 7.94614Z" fill="#3F2D20"/>
</g>
<defs>
<clipPath id="clip0">
<rect width="16" height="16" fill="white"/>
</clipPath>
</defs>
</svg>
