<svg width="33" height="35" viewBox="0 0 33 35" fill="none" xmlns="http://www.w3.org/2000/svg">
<path d="M27.7383 4.19329L21.5206 4.19329C21.2104 1.83666 18.9221 0 16.1507 0C13.3793 0 11.0913 1.83659 10.7812 4.19329L4.56313 4.19329C2.04687 4.19329 0 5.9873 0 8.192L0 8.39717C0 10.082 1.19727 11.5241 2.88388 12.1116L2.88388 31.0013C2.88388 33.2061 4.931 35 7.44709 35H24.8544C27.3706 35 29.4175 33.2059 29.4175 31.0013L29.4175 12.1117C31.104 11.5241 32.3014 10.082 32.3014 8.39725V8.19208C32.3014 5.9873 30.2544 4.19329 27.7383 4.19329ZM16.1507 1.89637C17.7269 1.89637 19.0426 2.88631 19.3337 4.19329L12.9682 4.19329C13.2592 2.88624 14.575 1.89637 16.1507 1.89637ZM27.2532 31.0013C27.2532 32.1605 26.1769 33.1037 24.8543 33.1037H7.44701C6.12446 33.1037 5.04808 32.1604 5.04808 31.0013L5.04808 12.3959L27.2532 12.3959L27.2532 31.0013ZM30.1371 8.39717C30.1371 9.55637 29.0607 10.4996 27.7382 10.4996L4.56313 10.4996C3.24058 10.4996 2.1642 9.55637 2.1642 8.39717V8.192C2.1642 7.03281 3.24058 6.08959 4.56313 6.08959L27.7383 6.08959C29.0608 6.08959 30.1372 7.03281 30.1372 8.192V8.39717H30.1371Z" fill="#AA4443"/>
<path d="M10.3477 30.6785C10.9454 30.6785 11.4298 30.2538 11.4298 29.7304L11.4298 19.0544C11.4298 18.5309 10.9453 18.1062 10.3477 18.1062C9.75016 18.1062 9.26563 18.5309 9.26563 19.0544L9.26563 29.7304C9.26554 30.254 9.75008 30.6785 10.3477 30.6785Z" fill="#AA4443"/>
<path d="M16.1495 30.6785C16.7471 30.6785 17.2317 30.2538 17.2317 29.7304V19.0544C17.2317 18.5309 16.747 18.1062 16.1495 18.1062C15.5519 18.1062 15.0674 18.5309 15.0674 19.0544L15.0674 29.7304C15.0674 30.254 15.5518 30.6785 16.1495 30.6785Z" fill="#AA4443"/>
<path d="M21.9513 30.6785C22.5489 30.6785 23.0333 30.2538 23.0333 29.7304V19.0544C23.0333 18.5309 22.5488 18.1062 21.9513 18.1062C21.3536 18.1062 20.8691 18.5309 20.8691 19.0544L20.8691 29.7304C20.8691 30.254 21.3538 30.6785 21.9513 30.6785Z" fill="#AA4443"/>
</svg>
